<svg width="308" height="382" viewBox="0 0 308 382" fill="none" xmlns="http://www.w3.org/2000/svg" xmlns:xlink="http://www.w3.org/1999/xlink">
<rect width="308" height="382" fill="#0E1525"/>
<rect width="308" height="146" fill="url(#pattern0)"/>
<text fill="#BBC0C7" xml:space="preserve" style="white-space: pre" font-family="Inter" font-size="11" letter-spacing="0em"><tspan x="41" y="305.5">[bio]</tspan></text>
<text fill="#858B93" xml:space="preserve" style="white-space: pre" font-family="Inter" font-size="11" letter-spacing="0em"><tspan x="42" y="357.5">[time]</tspan></text>
<rect x="114.479" y="237" width="111.718" height="28.1626" rx="9" fill="#1C2333"/>
<text fill="#B3B8BF" xml:space="preserve" style="white-space: pre" font-family="Inter" font-size="11" letter-spacing="0.02em"><tspan x="123.657" y="255.11">Copy profile link</tspan></text>
<text fill="white" xml:space="preserve" style="white-space: pre" font-family="Inter" font-size="11" letter-spacing="0.02em"><tspan x="236.657" y="252.11">...</tspan></text>
<path d="M40 244C40 240.134 43.134 237 47 237H97.3929C101.259 237 104.393 240.134 104.393 244V258.163C104.393 262.029 101.259 265.163 97.3929 265.163H47C43.134 265.163 40 262.029 40 258.163V244Z" fill="#0053A6"/>
<text fill="#B0CAE3" xml:space="preserve" style="white-space: pre" font-family="Inter" font-size="11" letter-spacing="0.02em"><tspan x="46.6574" y="255.11">+  Follow</tspan></text>
<text fill="#F5F9FC" xml:space="preserve" style="white-space: pre" font-family="Inter" font-size="20" letter-spacing="0.015em"><tspan x="40" y="221.273">[firstName] [lastName]</tspan></text>
<text fill="#B7BDC2" xml:space="preserve" style="white-space: pre" font-family="Inter" font-size="12" letter-spacing="0.005em"><tspan x="40" y="283.864">[username]</tspan></text>
<path d="M0 145.776L307.612 145.776" stroke="white"/>
<rect x="40" y="73" width="120" height="120" rx="60" fill="url(#pattern1)"/>
<text fill="#B3B8BF" xml:space="preserve" style="white-space: pre" font-family="Inter" font-size="12" letter-spacing="0em"><tspan x="282" y="165.16">[tick]</tspan></text>
<text fill="#B3B8BF" xml:space="preserve" style="white-space: pre" font-family="Inter" font-size="12" letter-spacing="0em"><tspan x="250" y="165.16">&#x1f31f;</tspan></text>
<text fill="white" xml:space="preserve" style="white-space: pre" font-family="Inter" font-size="12" letter-spacing="0em"><tspan x="266" y="164.16">&#x1f525;</tspan></text>
<defs>
<pattern id="pattern0" patternContentUnits="objectBoundingBox" width="1" height="1">
<use xlink:href="#image0_20_2" transform="translate(0 -0.0933219) scale(0.000260417 0.000549372)"/>
</pattern>
<pattern id="pattern1" patternContentUnits="objectBoundingBox" width="1" height="1">
<use xlink:href="#image1_20_2" transform="scale(0.00177305)"/>
</pattern>
<image id="image0_20_2" width="3840" height="2160" xlink:href="[banner]"/>
<image id="image1_20_2" width="564" height="564" xlink:href="[pfp]"/>
</defs>
</svg>
